<?xml version="1.0" encoding="UTF-8" standalone="no"?>
<!-- Generator: Adobe Illustrator 25.0.1, SVG Export Plug-In . SVG Version: 6.00 Build 0)  -->

<svg
   xmlns:osb="http://www.openswatchbook.org/uri/2009/osb"
   xmlns:dc="http://purl.org/dc/elements/1.1/"
   xmlns:cc="http://creativecommons.org/ns#"
   xmlns:rdf="http://www.w3.org/1999/02/22-rdf-syntax-ns#"
   xmlns:svg="http://www.w3.org/2000/svg"
   xmlns="http://www.w3.org/2000/svg"
   xmlns:xlink="http://www.w3.org/1999/xlink"
   xmlns:sodipodi="http://sodipodi.sourceforge.net/DTD/sodipodi-0.dtd"
   xmlns:inkscape="http://www.inkscape.org/namespaces/inkscape"
   version="1.0"
   id="Layer_1"
   x="0px"
   y="0px"
   viewBox="0 0 820 819.99997"
   xml:space="preserve"
   sodipodi:docname="bybit.svg"
   width="820"
   height="820"
   inkscape:version="0.92.5 (2060ec1f9f, 2020-04-08)"><metadata
   id="metadata21"><rdf:RDF><cc:Work
       rdf:about=""><dc:format>image/svg+xml</dc:format><dc:type
         rdf:resource="http://purl.org/dc/dcmitype/StillImage" /><dc:title></dc:title></cc:Work></rdf:RDF></metadata><defs
   id="defs19"><linearGradient
     id="linearGradient6122"
     osb:paint="solid"><stop
       style="stop-color:#040000;stop-opacity:1;"
       offset="0"
       id="stop6120" /></linearGradient><linearGradient
     id="linearGradient6112"
     osb:paint="solid"><stop
       style="stop-color:#040000;stop-opacity:1;"
       offset="0"
       id="stop6110" /></linearGradient><linearGradient
     inkscape:collect="always"
     xlink:href="#linearGradient6122"
     id="linearGradient6124"
     x1="97.075897"
     y1="143.56549"
     x2="632.79541"
     y2="143.56549"
     gradientUnits="userSpaceOnUse"
     gradientTransform="matrix(1.5254754,0,0,1.5254754,-181.70039,381.44437)" /></defs><sodipodi:namedview
   pagecolor="#ffffff"
   bordercolor="#666666"
   borderopacity="1"
   objecttolerance="10"
   gridtolerance="10"
   guidetolerance="10"
   inkscape:pageopacity="0"
   inkscape:pageshadow="2"
   inkscape:window-width="3200"
   inkscape:window-height="1638"
   id="namedview17"
   showgrid="false"
   inkscape:zoom="1.4067123"
   inkscape:cx="419.87792"
   inkscape:cy="405.338"
   inkscape:window-x="0"
   inkscape:window-y="56"
   inkscape:window-maximized="1"
   inkscape:current-layer="Layer_1" />
<style
   type="text/css"
   id="style2">
	.st0{fill:#F7A600;}
	.st1{fill:#14192C;}
	.st2{fill:none;}
</style>





<g
   id="g6133"
   transform="translate(35,-190.45001)"><circle
     r="391.07053"
     cy="600.45001"
     cx="375"
     id="path6116"
     style="fill:url(#linearGradient6124);fill-opacity:1;stroke:#000000;stroke-width:35.08593369;stroke-linecap:round;stroke-linejoin:miter;stroke-miterlimit:4;stroke-dasharray:none;stroke-opacity:1" /><path
     inkscape:connector-curvature="0"
     style="fill:#ff9c2e;fill-opacity:1"
     id="path4"
     d="m 531.4,666.90001 v -188.9 h 38 v 188.9 z"
     class="st0" /><path
     inkscape:connector-curvature="0"
     style="fill:#ffffff;fill-opacity:1"
     id="path6"
     d="M 88.8,723.00001 H 7.3999977 v -188.9 H 85.5 c 38,0 60.1,20.7 60.1,53.1 0,21 -14.2,34.5 -24,39 11.7,5.3 26.8,17.2 26.8,42.5 0,35.2 -24.9,54.3 -59.6,54.3 z m -6.2,-156 H 45.499998 v 43.5 H 82.6 c 16.100003,0 25.1,-8.8 25.1,-21.8 0,-13 -8.999997,-21.7 -25.1,-21.7 z m 2.4,76.6 H 45.399998 v 46.4 H 85 c 17.2,0 25.4,-10.6 25.4,-23.4 0,-12.8 -8.2,-23 -25.4,-23 z"
     class="st1" /><path
     inkscape:connector-curvature="0"
     style="fill:#ffffff;fill-opacity:1"
     id="path8"
     d="m 264.2,645.50001 v 77.5 h -37.7 v -77.5 l -58.5,-111.4 h 41.2 l 36.3,76.1 35.8,-76.1 h 41.2 z"
     class="st1" /><path
     inkscape:connector-curvature="0"
     style="fill:#ffffff;fill-opacity:1"
     id="path10"
     d="m 430.3,723.00001 h -81.4 v -188.9 H 427 c 38,0 60.1,20.7 60.1,53.1 0,21 -14.2,34.5 -24,39 11.7,5.3 26.8,17.2 26.8,42.5 -0.1,35.2 -24.9,54.3 -59.6,54.3 z m -6.3,-156 h -37.1 v 43.5 H 424 c 16.1,0 25.1,-8.8 25.1,-21.8 0,-13 -9,-21.7 -25.1,-21.7 z m 2.4,76.6 h -39.6 v 46.4 h 39.6 c 17.2,0 25.4,-10.6 25.4,-23.4 0,-12.8 -8.1,-23 -25.4,-23 z"
     class="st1" /><path
     inkscape:connector-curvature="0"
     style="fill:#ffffff;fill-opacity:1"
     id="path12"
     d="m 691.7,567.00001 v 156 h -38 v -156 H 603 v -32.9 h 139.5 v 32.9 z"
     class="st1" /><rect
     style="fill:none"
     id="rect14"
     height="301.10001"
     width="784"
     class="st2"
     y="449.89999"
     x="-17" /></g>
</svg>